<mxfile host="app.diagrams.net" modified="2024-06-17T21:19:51.413Z" agent="Mozilla/5.0 (Macintosh; Intel Mac OS X 10_15_7) AppleWebKit/537.36 (KHTML, like Gecko) Chrome/125.0.0.0 Safari/537.36" etag="xSFdiwwiLsMzaZkqT-F7" version="24.2.5" type="google">
  <diagram id="rNpMpePZE2uh1KBI-3jB" name="Page-1">
    <mxGraphModel grid="1" page="1" gridSize="10" guides="1" tooltips="1" connect="1" arrows="1" fold="1" pageScale="1" pageWidth="827" pageHeight="1169" math="0" shadow="0">
      <root>
        <mxCell id="0" />
        <mxCell id="1" style="" parent="0" />
        <mxCell id="QrdwtWomN_TDjPVmjxzj-6" style="edgeStyle=orthogonalEdgeStyle;rounded=0;orthogonalLoop=1;jettySize=auto;html=1;endArrow=none;endFill=0;fontSize=9;" edge="1" parent="1" source="QrdwtWomN_TDjPVmjxzj-1" target="QrdwtWomN_TDjPVmjxzj-4">
          <mxGeometry relative="1" as="geometry" />
        </mxCell>
        <mxCell id="QrdwtWomN_TDjPVmjxzj-1" value="79 - 17:30 - A&lt;br&gt;&lt;font&gt;&lt;span style=&quot;font-size: 12px&quot;&gt;&lt;b&gt;&lt;span&gt;?&amp;nbsp;&lt;/span&gt;&amp;nbsp;- ?&lt;/b&gt;&lt;/span&gt;&lt;/font&gt;" style="rounded=0;whiteSpace=wrap;html=1;fontSize=9;" vertex="1" parent="1">
          <mxGeometry x="160" y="300" width="160" height="40" as="geometry" />
        </mxCell>
        <mxCell id="QrdwtWomN_TDjPVmjxzj-2" value="Phase finale Sportifs" style="text;html=1;strokeColor=none;fillColor=none;align=center;verticalAlign=middle;whiteSpace=wrap;rounded=0;fontSize=17;fontStyle=1" vertex="1" parent="1">
          <mxGeometry x="160" y="250" width="460" height="30" as="geometry" />
        </mxCell>
        <mxCell id="QrdwtWomN_TDjPVmjxzj-5" style="edgeStyle=orthogonalEdgeStyle;rounded=0;orthogonalLoop=1;jettySize=auto;html=1;endArrow=none;endFill=0;fontSize=9;" edge="1" parent="1" source="QrdwtWomN_TDjPVmjxzj-3" target="QrdwtWomN_TDjPVmjxzj-4">
          <mxGeometry relative="1" as="geometry" />
        </mxCell>
        <mxCell id="QrdwtWomN_TDjPVmjxzj-3" value="82 - 17:45 - B&lt;br&gt;&lt;b&gt;&lt;font style=&quot;font-size: 12px&quot;&gt;? - ?&lt;/font&gt;&lt;/b&gt;" style="rounded=0;whiteSpace=wrap;html=1;fontSize=9;" vertex="1" parent="1">
          <mxGeometry x="160" y="360" width="160" height="40" as="geometry" />
        </mxCell>
        <mxCell id="QrdwtWomN_TDjPVmjxzj-18" style="edgeStyle=orthogonalEdgeStyle;rounded=0;orthogonalLoop=1;jettySize=auto;html=1;entryX=0;entryY=0.5;entryDx=0;entryDy=0;fontSize=12;endArrow=none;endFill=0;" edge="1" parent="1" source="QrdwtWomN_TDjPVmjxzj-4" target="QrdwtWomN_TDjPVmjxzj-16">
          <mxGeometry relative="1" as="geometry" />
        </mxCell>
        <mxCell id="QrdwtWomN_TDjPVmjxzj-4" value="84 - 18:15 - A&lt;br&gt;&lt;font style=&quot;font-size: 12px&quot;&gt;&lt;b&gt;? - ?&lt;/b&gt;&lt;/font&gt;" style="rounded=0;whiteSpace=wrap;html=1;fontSize=9;" vertex="1" parent="1">
          <mxGeometry x="360" y="330" width="160" height="40" as="geometry" />
        </mxCell>
        <mxCell id="QrdwtWomN_TDjPVmjxzj-11" style="edgeStyle=orthogonalEdgeStyle;rounded=0;orthogonalLoop=1;jettySize=auto;html=1;endArrow=none;endFill=0;fontSize=9;" edge="1" parent="1" source="QrdwtWomN_TDjPVmjxzj-12" target="QrdwtWomN_TDjPVmjxzj-15">
          <mxGeometry relative="1" as="geometry" />
        </mxCell>
        <mxCell id="QrdwtWomN_TDjPVmjxzj-12" value="80 - 17:30 - B&lt;br style=&quot;font-size: 9px&quot;&gt;&lt;span style=&quot;font-size: 12px;&quot;&gt;&lt;b&gt;? - ?&lt;/b&gt;&lt;/span&gt;" style="rounded=0;whiteSpace=wrap;html=1;fontSize=9;" vertex="1" parent="1">
          <mxGeometry x="160" y="420" width="160" height="40" as="geometry" />
        </mxCell>
        <mxCell id="QrdwtWomN_TDjPVmjxzj-13" style="edgeStyle=orthogonalEdgeStyle;rounded=0;orthogonalLoop=1;jettySize=auto;html=1;endArrow=none;endFill=0;fontSize=9;" edge="1" parent="1" source="QrdwtWomN_TDjPVmjxzj-14" target="QrdwtWomN_TDjPVmjxzj-15">
          <mxGeometry relative="1" as="geometry" />
        </mxCell>
        <mxCell id="QrdwtWomN_TDjPVmjxzj-14" value="81 - 17:45 - A&lt;br&gt;&lt;span style=&quot;font-size: 12px;&quot;&gt;&lt;b&gt;? - ?&lt;/b&gt;&lt;/span&gt;" style="rounded=0;whiteSpace=wrap;html=1;fontSize=9;" vertex="1" parent="1">
          <mxGeometry x="160" y="480" width="160" height="40" as="geometry" />
        </mxCell>
        <mxCell id="QrdwtWomN_TDjPVmjxzj-17" style="edgeStyle=orthogonalEdgeStyle;rounded=0;orthogonalLoop=1;jettySize=auto;html=1;entryX=0;entryY=0.5;entryDx=0;entryDy=0;fontSize=12;endArrow=none;endFill=0;" edge="1" parent="1" source="QrdwtWomN_TDjPVmjxzj-15" target="QrdwtWomN_TDjPVmjxzj-16">
          <mxGeometry relative="1" as="geometry" />
        </mxCell>
        <mxCell id="QrdwtWomN_TDjPVmjxzj-15" value="85 - 18:15 - B&lt;div&gt;&lt;font style=&quot;font-size: 12px;&quot;&gt;&lt;b&gt;? - ?&lt;/b&gt;&lt;/font&gt;&lt;/div&gt;" style="rounded=0;whiteSpace=wrap;html=1;fontSize=9;" vertex="1" parent="1">
          <mxGeometry x="360" y="450" width="160" height="40" as="geometry" />
        </mxCell>
        <mxCell id="QrdwtWomN_TDjPVmjxzj-16" value="86 - 18:45 - B&lt;br&gt;&lt;b style=&quot;font-size: 12px;&quot;&gt;? - ?&lt;/b&gt;" style="rounded=0;whiteSpace=wrap;html=1;fontSize=9;" vertex="1" parent="1">
          <mxGeometry x="460" y="390" width="160" height="40" as="geometry" />
        </mxCell>
        <mxCell id="QrdwtWomN_TDjPVmjxzj-19" value="Finale Féminines et Vétérans" style="text;html=1;strokeColor=none;fillColor=none;align=center;verticalAlign=middle;whiteSpace=wrap;rounded=0;fontSize=17;fontStyle=1" vertex="1" parent="1">
          <mxGeometry x="160" y="540" width="460" height="30" as="geometry" />
        </mxCell>
        <mxCell id="QrdwtWomN_TDjPVmjxzj-20" value="83 - 18:00 - B&lt;br&gt;&lt;span style=&quot;font-size: 12px;&quot;&gt;&lt;b&gt;? - ?&lt;/b&gt;&lt;/span&gt;" style="rounded=0;whiteSpace=wrap;html=1;fontSize=9;" vertex="1" parent="1">
          <mxGeometry x="310" y="585" width="160" height="40" as="geometry" />
        </mxCell>
      </root>
    </mxGraphModel>
  </diagram>
</mxfile>
